<svg viewBox="0 0 32 32" xmlns="http://www.w3.org/2000/svg">
  <!-- Test tube glass outline -->
  <defs>
    <!-- Gradient for the liquid -->
    <linearGradient id="liquidGradient" x1="0%" y1="0%" x2="100%" y2="100%">
      <stop offset="0%" stop-color="#667eea" stop-opacity="0.9"/>
      <stop offset="100%" stop-color="#764ba2" stop-opacity="0.8"/>
    </linearGradient>
    
    <!-- Glass highlight effect -->
    <linearGradient id="glassHighlight" x1="0%" y1="0%" x2="100%" y2="100%">
      <stop offset="0%" stop-color="#ffffff" stop-opacity="0.3"/>
      <stop offset="50%" stop-color="#ffffff" stop-opacity="0.1"/>
      <stop offset="100%" stop-color="#ffffff" stop-opacity="0.05"/>
    </linearGradient>
  </defs>
  
  <!-- Main test tube body - slanted to the left -->
  <path d="M10 28 L14 4 L18 4 L14 28 Q13 29 12 29 Q11 29 10 28 Z" 
        fill="none" 
        stroke="#333" 
        stroke-width="2" 
        stroke-linecap="round" 
        stroke-linejoin="round"/>
  
  <!-- Liquid fill - half full, slanted -->
  <path d="M11.5 28 L13 16 L17 16 L12.5 28 Q12 28.5 11.5 28 Z" 
        fill="url(#liquidGradient)"/>
  
  <!-- Test tube opening/neck -->
  <rect x="13" y="2" width="6" height="3" 
        fill="none" 
        stroke="#333" 
        stroke-width="2" 
        rx="1"/>
  
  <!-- Cork/stopper -->
  <rect x="14" y="1" width="4" height="2" 
        fill="#8B4513" 
        stroke="#654321" 
        stroke-width="1" 
        rx="0.5"/>
  
  <!-- Glass highlight effect -->
  <path d="M11 27 L13.5 6 L15 6 L12.5 27 Q12 27.3 11.5 27 Q11 27.3 11 27 Z" 
        fill="url(#glassHighlight)" 
        opacity="0.4"/>
  
  <!-- Small bubble in liquid for realism -->
  <circle cx="12.5" cy="20" r="0.8" fill="#ffffff" opacity="0.4"/>
  <circle cx="14" cy="24" r="0.5" fill="#ffffff" opacity="0.3"/>
</svg>
